#Comment line ignore any data following # character 
#Hierarchical Translation and Rotation (.htr) file 
[Header]	
#Header keywords are followed by a single value 
FileType HTR		#Single word string
DataType HTRS		#Translation followed by rotation and scale data
FileVersion 1		#integer
NumSegments 84		#integer
NumFrames 2		#integer
DataFrameRate 30		#integer, data frame rate in this file
EulerRotationOrder ZYX
CalibrationUnits mm
RotationUnits Degrees
GlobalAxisofGravity Y
BoneLengthAxis Y
ScaleFactor 1.00
[SegmentNames&Hierarchy]
#CHILD	PARENT
MASTER GLOBAL
root MASTER
chest root
L_mid_tent01 root
R_mid_tent01 root
spine01 root
Bip01_Neck chest
L_humerus chest
R_humerus chest
weapon_bone chest
Bip01_Head Bip01_Neck
eye_left_bone Bip01_Head
eye_right_bone Bip01_Head
L_forearm L_humerus
L_front_hand L_forearm
L_weapon_bone L_forearm
L_front_hand01_01 L_front_hand
L_front_hand02_01 L_front_hand
L_front_hand03_01 L_front_hand
L_front_hand01_02 L_front_hand01_01
L_front_hand02_02 L_front_hand02_01
L_front_hand03_02 L_front_hand03_01
R_forearm R_humerus
R_front_hand R_forearm
R_weapon_bone R_forearm
R_front_hand01_01 R_front_hand
R_front_hand02_01 R_front_hand
R_front_hand03_01 R_front_hand
R_front_hand01_02 R_front_hand01_01
R_front_hand02_02 R_front_hand02_01
R_front_hand03_02 R_front_hand03_01
null_rope01_connect L_mid_tent01
Rope1_Seg01 null_rope01_connect
Rope1_Seg02 Rope1_Seg01
Rope1_Seg03 Rope1_Seg02
Rope1_Seg04 Rope1_Seg03
Rope1_Seg05 Rope1_Seg04
Rope1_Seg06 Rope1_Seg05
Rope1_Seg07 Rope1_Seg06
Rope1_Seg09 Rope1_Seg07
L_mid_hand01 Rope1_Seg09
L_mid_hand02 Rope1_Seg09
L_mid_hand03 Rope1_Seg09
null_rope02_connect R_mid_tent01
Rope2_Seg01 null_rope02_connect
Rope2_Seg02 Rope2_Seg01
Rope2_Seg03 Rope2_Seg02
Rope2_Seg04 Rope2_Seg03
Rope2_Seg05 Rope2_Seg04
Rope2_Seg06 Rope2_Seg05
Rope2_Seg07 Rope2_Seg06
Rope2_Seg09 Rope2_Seg07
R_mid_hand01 Rope2_Seg09
R_mid_hand02 Rope2_Seg09
R_mid_hand03 Rope2_Seg09
spine02 spine01
spine03 spine02
pelvis spine03
null_rope03_connect pelvis
null_rope04_connect pelvis
Rope3_Seg01 null_rope03_connect
Rope3_Seg02 Rope3_Seg01
Rope3_Seg03 Rope3_Seg02
Rope3_Seg04 Rope3_Seg03
Rope3_Seg05 Rope3_Seg04
Rope3_Seg06 Rope3_Seg05
Rope3_Seg07 Rope3_Seg06
Rope3_Seg08 Rope3_Seg07
Rope3_Seg09 Rope3_Seg08
R_rear_hand01 Rope3_Seg09
R_rear_hand02 Rope3_Seg09
R_rear_hand03 Rope3_Seg09
Rope4_Seg01 null_rope04_connect
Rope4_Seg02 Rope4_Seg01
Rope4_Seg03 Rope4_Seg02
Rope4_Seg04 Rope4_Seg03
Rope4_Seg05 Rope4_Seg04
Rope4_Seg06 Rope4_Seg05
Rope4_Seg07 Rope4_Seg06
Rope4_Seg08 Rope4_Seg07
Rope4_Seg09 Rope4_Seg08
L_rear_hand01 Rope4_Seg09
L_rear_hand02 Rope4_Seg09
L_rear_hand03 Rope4_Seg09
[BasePosition]
#SegmentName Tx, Ty, Tz, Rx, Ry, Rz, BoneLength
MASTER 0.000000 0.000000 0.000000 -90.000000 0.000000 0.000000 10.000000 
root 0.000000 0.000000 0.000000 0.000000 0.000000 0.000000 10.000000 
chest 0.000000 0.000000 0.000000 0.000000 0.000000 0.000000 10.000000 
L_mid_tent01 0.000000 0.000000 0.000000 0.000000 0.000000 0.000000 10.000000 
R_mid_tent01 0.000000 0.000000 0.000000 0.000000 0.000000 0.000000 10.000000 
spine01 0.000000 0.000000 0.000000 0.000000 0.000000 0.000000 10.000000 
Bip01_Neck 0.000000 0.000000 0.000000 0.000000 0.000000 0.000000 10.000000 
L_humerus 0.000000 0.000000 0.000000 0.000000 0.000000 0.000000 10.000000 
R_humerus 0.000000 0.000000 0.000000 0.000000 0.000000 0.000000 10.000000 
weapon_bone 0.000000 0.000000 0.000000 0.000000 0.000000 0.000000 10.000000 
Bip01_Head 0.000000 0.000000 0.000000 0.000000 0.000000 0.000000 10.000000 
eye_left_bone 0.000000 0.000000 0.000000 0.000000 0.000000 0.000000 10.000000 
eye_right_bone 0.000000 0.000000 0.000000 0.000000 0.000000 0.000000 10.000000 
L_forearm 0.000000 0.000000 0.000000 0.000000 0.000000 0.000000 10.000000 
L_front_hand 0.000000 0.000000 0.000000 0.000000 0.000000 0.000000 10.000000 
L_weapon_bone 0.000000 0.000000 0.000000 0.000000 0.000000 0.000000 10.000000 
L_front_hand01_01 0.000000 0.000000 0.000000 0.000000 0.000000 0.000000 10.000000 
L_front_hand02_01 0.000000 0.000000 0.000000 0.000000 0.000000 0.000000 10.000000 
L_front_hand03_01 0.000000 0.000000 0.000000 0.000000 0.000000 0.000000 10.000000 
L_front_hand01_02 0.000000 0.000000 0.000000 0.000000 0.000000 0.000000 10.000000 
L_front_hand02_02 0.000000 0.000000 0.000000 0.000000 0.000000 0.000000 10.000000 
L_front_hand03_02 0.000000 0.000000 0.000000 0.000000 0.000000 0.000000 10.000000 
R_forearm 0.000000 0.000000 0.000000 0.000000 0.000000 0.000000 10.000000 
R_front_hand 0.000000 0.000000 0.000000 0.000000 0.000000 0.000000 10.000000 
R_weapon_bone 0.000000 0.000000 0.000000 0.000000 0.000000 0.000000 10.000000 
R_front_hand01_01 0.000000 0.000000 0.000000 0.000000 0.000000 0.000000 10.000000 
R_front_hand02_01 0.000000 0.000000 0.000000 0.000000 0.000000 0.000000 10.000000 
R_front_hand03_01 0.000000 0.000000 0.000000 0.000000 0.000000 0.000000 10.000000 
R_front_hand01_02 0.000000 0.000000 0.000000 0.000000 0.000000 0.000000 10.000000 
R_front_hand02_02 0.000000 0.000000 0.000000 0.000000 0.000000 0.000000 10.000000 
R_front_hand03_02 0.000000 0.000000 0.000000 0.000000 0.000000 0.000000 10.000000 
null_rope01_connect 0.000000 0.000000 0.000000 0.000000 0.000000 0.000000 10.000000 
Rope1_Seg01 0.000000 0.000000 0.000000 0.000000 0.000000 0.000000 10.000000 
Rope1_Seg02 0.000000 0.000000 0.000000 0.000000 0.000000 0.000000 10.000000 
Rope1_Seg03 0.000000 0.000000 0.000000 0.000000 0.000000 0.000000 10.000000 
Rope1_Seg04 0.000000 0.000000 0.000000 0.000000 0.000000 0.000000 10.000000 
Rope1_Seg05 0.000000 0.000000 0.000000 0.000000 0.000000 0.000000 10.000000 
Rope1_Seg06 0.000000 0.000000 0.000000 0.000000 0.000000 0.000000 10.000000 
Rope1_Seg07 0.000000 0.000000 0.000000 0.000000 0.000000 0.000000 10.000000 
Rope1_Seg09 0.000000 0.000000 0.000000 0.000000 0.000000 0.000000 10.000000 
L_mid_hand01 0.000000 0.000000 0.000000 0.000000 0.000000 0.000000 10.000000 
L_mid_hand02 0.000000 0.000000 0.000000 0.000000 0.000000 0.000000 10.000000 
L_mid_hand03 0.000000 0.000000 0.000000 0.000000 0.000000 0.000000 10.000000 
null_rope02_connect 0.000000 0.000000 0.000000 0.000000 0.000000 0.000000 10.000000 
Rope2_Seg01 0.000000 0.000000 0.000000 0.000000 0.000000 0.000000 10.000000 
Rope2_Seg02 0.000000 0.000000 0.000000 0.000000 0.000000 0.000000 10.000000 
Rope2_Seg03 0.000000 0.000000 0.000000 0.000000 0.000000 0.000000 10.000000 
Rope2_Seg04 0.000000 0.000000 0.000000 0.000000 0.000000 0.000000 10.000000 
Rope2_Seg05 0.000000 0.000000 0.000000 0.000000 0.000000 0.000000 10.000000 
Rope2_Seg06 0.000000 0.000000 0.000000 0.000000 0.000000 0.000000 10.000000 
Rope2_Seg07 0.000000 0.000000 0.000000 0.000000 0.000000 0.000000 10.000000 
Rope2_Seg09 0.000000 0.000000 0.000000 0.000000 0.000000 0.000000 10.000000 
R_mid_hand01 0.000000 0.000000 0.000000 0.000000 0.000000 0.000000 10.000000 
R_mid_hand02 0.000000 0.000000 0.000000 0.000000 0.000000 0.000000 10.000000 
R_mid_hand03 0.000000 0.000000 0.000000 0.000000 0.000000 0.000000 10.000000 
spine02 0.000000 0.000000 0.000000 0.000000 0.000000 0.000000 10.000000 
spine03 0.000000 0.000000 0.000000 0.000000 0.000000 0.000000 10.000000 
pelvis 0.000000 0.000000 0.000000 0.000000 0.000000 0.000000 10.000000 
null_rope03_connect 0.000000 0.000000 0.000000 0.000000 0.000000 0.000000 10.000000 
null_rope04_connect 0.000000 0.000000 0.000000 0.000000 0.000000 0.000000 10.000000 
Rope3_Seg01 0.000000 0.000000 0.000000 0.000000 0.000000 0.000000 10.000000 
Rope3_Seg02 0.000000 0.000000 0.000000 0.000000 0.000000 0.000000 10.000000 
Rope3_Seg03 0.000000 0.000000 0.000000 0.000000 0.000000 0.000000 10.000000 
Rope3_Seg04 0.000000 0.000000 0.000000 0.000000 0.000000 0.000000 10.000000 
Rope3_Seg05 0.000000 0.000000 0.000000 0.000000 0.000000 0.000000 10.000000 
Rope3_Seg06 0.000000 0.000000 0.000000 0.000000 0.000000 0.000000 10.000000 
Rope3_Seg07 0.000000 0.000000 0.000000 0.000000 0.000000 0.000000 10.000000 
Rope3_Seg08 0.000000 0.000000 0.000000 0.000000 0.000000 0.000000 10.000000 
Rope3_Seg09 0.000000 0.000000 0.000000 0.000000 0.000000 0.000000 10.000000 
R_rear_hand01 0.000000 0.000000 0.000000 0.000000 0.000000 0.000000 10.000000 
R_rear_hand02 0.000000 0.000000 0.000000 0.000000 0.000000 0.000000 10.000000 
R_rear_hand03 0.000000 0.000000 0.000000 0.000000 0.000000 0.000000 10.000000 
Rope4_Seg01 0.000000 0.000000 0.000000 0.000000 0.000000 0.000000 10.000000 
Rope4_Seg02 0.000000 0.000000 0.000000 0.000000 0.000000 0.000000 10.000000 
Rope4_Seg03 0.000000 0.000000 0.000000 0.000000 0.000000 0.000000 10.000000 
Rope4_Seg04 0.000000 0.000000 0.000000 0.000000 0.000000 0.000000 10.000000 
Rope4_Seg05 0.000000 0.000000 0.000000 0.000000 0.000000 0.000000 10.000000 
Rope4_Seg06 0.000000 0.000000 0.000000 0.000000 0.000000 0.000000 10.000000 
Rope4_Seg07 0.000000 0.000000 0.000000 0.000000 0.000000 0.000000 10.000000 
Rope4_Seg08 0.000000 0.000000 0.000000 0.000000 0.000000 0.000000 10.000000 
Rope4_Seg09 0.000000 0.000000 0.000000 0.000000 0.000000 0.000000 10.000000 
L_rear_hand01 0.000000 0.000000 0.000000 0.000000 0.000000 0.000000 10.000000 
L_rear_hand02 0.000000 0.000000 0.000000 0.000000 0.000000 0.000000 10.000000 
L_rear_hand03 0.000000 0.000000 0.000000 0.000000 0.000000 0.000000 10.000000 
#Beginning of Data. Separated by tabs
#Fr	Tx	Ty	Tz	Rx	Ry	Rz	SF
[MASTER]
34 0.000000 0.000000 0.000000 0.001660 0.001660 0.001660 0.000000
35 0.000000 0.000000 0.000000 0.001660 0.001660 0.001660 0.000000
[root]
34 4.596732 133.869904 1463.520264 -81.139824 -11.688137 -100.082375 1469.637329
35 -0.157317 100.585709 1457.037231 -83.674377 -11.640272 -95.793236 1460.505005
[chest]
34 -84.512650 -34.090519 0.000000 -2.692128 0.407937 174.460724 91.129311
35 -84.512650 -34.090519 0.000000 -2.548412 0.424253 172.637650 91.129311
[L_mid_tent01]
34 27.299221 22.178879 -249.918732 21.537901 37.537392 45.660995 252.381699
35 27.299183 22.178974 -249.918732 8.167767 30.925409 32.631096 252.381714
[R_mid_tent01]
34 23.228794 24.509907 226.238495 -150.138657 -4.365055 22.311079 228.744751
35 23.228794 24.509907 226.238495 -154.052673 -5.962071 21.571655 228.744751
[spine01]
34 -0.361383 -0.195265 0.000000 0.001941 0.001320 21.554924 0.410763
35 -0.361383 -0.195265 0.000000 0.001942 0.001318 21.653925 0.410763
[Bip01_Neck]
34 165.484543 71.581718 0.000119 175.896118 1.177290 24.871183 180.302734
35 165.484543 71.581718 0.000119 175.896118 1.177290 24.871183 180.302734
[L_humerus]
34 -13.983130 -135.272980 -120.471481 -48.381981 65.588593 43.180920 181.680161
35 -13.983130 -135.272980 -120.471481 -32.384388 68.216309 58.021179 181.680161
[R_humerus]
34 -13.983309 -135.273102 125.287651 107.380486 -68.194031 -2.985922 184.909012
35 -13.983309 -135.273102 125.287651 80.557251 -74.100426 20.402817 184.909012
[weapon_bone]
34 235.964890 -300.705902 0.000000 0.000000 -89.951546 -128.212341 382.234833
35 235.964890 -300.705902 0.000000 0.000000 -89.951546 -128.212341 382.234833
[Bip01_Head]
34 228.884109 130.986176 6.719475 11.300257 5.464161 -67.114998 263.800049
35 223.650055 136.630554 7.376194 8.058819 4.318336 -66.302856 262.186310
[eye_left_bone]
34 28.517456 156.393372 -74.885513 -105.568672 -85.685295 6.085915 175.726990
35 27.945709 156.169586 -74.807770 -104.949249 -85.645630 5.461001 175.402695
[eye_right_bone]
34 37.318840 157.410233 53.878536 74.433456 -85.684441 6.084512 170.509750
35 37.016525 157.135956 53.945004 75.046616 -85.647240 5.463211 170.211624
[L_forearm]
34 322.776093 0.000000 -0.000119 0.000060 -0.002346 -92.907990 322.776093
35 322.776093 0.000000 -0.000119 0.000196 -0.002339 -99.558487 322.776093
[L_front_hand]
34 241.149185 -0.042021 -3.300071 39.578915 3.347552 -5.332743 241.171753
35 241.149185 -0.042021 -3.300071 39.578915 3.347552 -5.332743 241.171753
[L_weapon_bone]
34 156.183838 0.000000 0.000000 0.001513 0.001794 -9.718368 156.183838
35 156.183838 0.000000 0.000000 0.001575 0.001740 -5.703068 156.183838
[L_front_hand01_01]
34 86.095154 20.947098 -0.655860 -0.288967 -0.524182 66.581490 88.609184
35 86.095154 20.947098 -0.655860 -0.288967 -0.524182 66.581490 88.609184
[L_front_hand02_01]
34 86.935165 -11.437475 24.513514 142.546371 -55.255390 -47.355206 91.046425
35 86.935165 -11.437475 24.513514 142.546371 -55.255390 -47.355206 91.046425
[L_front_hand03_01]
34 86.637497 -14.123976 -20.424902 -142.852753 53.473362 -49.356201 90.126129
35 86.637497 -14.123976 -20.424902 -142.852753 53.473362 -49.356201 90.126129
[L_front_hand01_02]
34 71.020905 -0.000179 0.000030 0.000022 -0.002347 -91.065186 71.020905
35 71.020905 -0.000179 0.000030 0.000249 -0.002334 -102.169746 71.020905
[L_front_hand02_02]
34 71.020927 -0.000119 0.000060 0.000022 -0.002347 -91.065186 71.020927
35 71.020927 -0.000119 0.000060 0.000249 -0.002334 -102.169746 71.020927
[L_front_hand03_02]
34 71.020905 -0.000060 0.000060 0.000022 -0.002347 -91.065186 71.020905
35 71.020905 -0.000060 0.000060 0.000249 -0.002334 -102.169746 71.020905
[R_forearm]
34 322.776428 -0.000060 0.000030 0.208061 -0.055366 -75.748100 322.776428
35 322.776428 -0.000060 0.000030 0.213114 -0.012535 -87.639320 322.776428
[R_front_hand]
34 238.847015 -0.006795 2.210259 -2.635298 -10.645461 -26.312506 238.857239
35 238.847015 -0.006795 2.210259 -2.635298 -10.645461 -26.312506 238.857239
[R_weapon_bone]
34 155.664093 0.002503 -0.000030 0.003487 0.001180 -90.988930 155.664078
35 155.664093 0.002503 -0.000030 0.003487 0.001180 -90.988930 155.664078
[R_front_hand01_01]
34 87.624611 14.231146 22.918642 -154.633499 -59.950619 61.746044 91.683487
35 87.624611 14.231146 22.918642 -154.633499 -59.950619 61.746044 91.683487
[R_front_hand02_01]
34 89.356956 14.367283 -19.491137 154.602661 58.302849 63.744389 92.579636
35 89.356956 14.367283 -19.491137 154.602661 58.302849 63.744381 92.579636
[R_front_hand03_01]
34 87.286232 -22.307278 -0.143439 0.162155 -0.423168 -75.767921 90.091743
35 87.286232 -22.307278 -0.143439 0.162155 -0.423168 -75.767921 90.091743
[R_front_hand01_02]
34 71.020905 0.000060 0.000119 0.002323 -0.000334 106.381714 71.020905
35 71.020905 0.000060 0.000119 0.002323 -0.000334 106.381714 71.020905
[R_front_hand02_02]
34 71.020844 -0.000030 -0.000119 0.002323 -0.000334 106.381714 71.020836
35 71.020844 -0.000030 -0.000119 0.002323 -0.000334 106.381714 71.020836
[R_front_hand03_02]
34 71.020905 0.000000 0.000030 0.002323 -0.000334 106.381714 71.020905
35 71.020905 0.000000 0.000030 0.002323 -0.000334 106.381714 71.020905
[null_rope01_connect]
34 328.732483 0.000000 -0.000238 -82.569244 -38.754772 143.254761 328.732483
35 328.732483 0.000000 -0.000238 -85.839920 -53.658268 155.525848 328.732483
[Rope1_Seg01]
34 -0.000038 -0.000114 0.000112 140.962067 27.349031 -143.146118 0.000165
35 -0.000038 -0.000114 0.000113 107.629135 19.097603 -130.608307 0.000165
[Rope1_Seg02]
34 139.999863 -0.000179 0.000000 -30.791414 8.862514 23.455482 139.999863
35 139.999863 -0.000179 0.000000 -37.342911 6.189211 14.262305 139.999863
[Rope1_Seg03]
34 139.999924 0.000060 -0.000060 64.068298 -8.807352 -40.902519 139.999924
35 139.999924 0.000060 -0.000060 -4.742216 1.612873 1.132892 139.999924
[Rope1_Seg04]
34 139.999924 -0.000060 -0.000119 6.396822 -5.065388 -1.461658 139.999924
35 139.999924 -0.000060 -0.000119 60.643051 8.470192 -18.464264 139.999924
[Rope1_Seg05]
34 139.999832 0.000119 -0.000060 0.729333 -0.655423 -0.111321 139.999832
35 139.999832 0.000119 -0.000060 43.308758 -2.977410 -4.124344 139.999832
[Rope1_Seg06]
34 139.999954 0.000119 -0.000060 -0.003285 0.001660 0.001660 139.999954
35 139.999954 0.000119 -0.000060 11.522764 -1.929339 -0.371983 139.999954
[Rope1_Seg07]
34 139.999985 0.000060 0.000000 0.006605 0.001660 0.001660 139.999985
35 139.999985 0.000060 0.000000 0.852327 -0.171445 0.000385 139.999985
[Rope1_Seg09]
34 121.602913 0.000119 -0.000089 57.568470 -1.360174 0.846031 121.602913
35 121.602913 0.000119 -0.000089 57.568462 -1.360173 0.846031 121.602913
[L_mid_hand01]
34 103.859421 1.038730 8.195221 107.171867 -32.882233 -10.052468 104.187431
35 103.859421 1.038730 8.195221 106.250214 -27.610260 -8.223019 104.187431
[L_mid_hand02]
34 105.572853 -4.139662 -10.864139 -143.006210 26.794415 -30.296387 106.211075
35 105.572853 -4.139662 -10.864139 -140.972244 23.403244 -25.511135 106.211075
[L_mid_hand03]
34 104.641464 17.579376 -3.913581 -15.831842 10.205526 35.898510 106.179977
35 104.641464 17.579376 -3.913581 -16.709372 8.665551 30.549110 106.179977
[null_rope02_connect]
34 328.732849 0.000179 -0.000119 167.614090 50.119854 -93.534859 328.732849
35 328.732849 0.000179 -0.000119 174.813629 57.092533 -85.326500 328.732849
[Rope2_Seg01]
34 0.000094 0.000113 0.000000 -57.544262 17.753365 -32.893078 0.000147
35 0.000099 0.000113 0.000000 -58.132423 17.787575 -32.049164 0.000150
[Rope2_Seg02]
34 139.999741 -0.000060 -0.000119 36.729862 -2.860910 -6.339928 139.999756
35 139.999741 -0.000060 -0.000119 51.455433 1.024746 -8.379714 139.999756
[Rope2_Seg03]
34 140.000107 0.000030 0.000000 26.041412 -15.265792 -5.601254 140.000107
35 140.000107 0.000030 0.000000 33.461010 -13.567999 -7.285756 140.000107
[Rope2_Seg04]
34 139.999802 0.000000 -0.000060 26.095695 -28.638597 -12.823398 139.999802
35 139.999802 0.000000 -0.000060 28.130405 -21.893112 -12.278020 139.999802
[Rope2_Seg05]
34 139.999985 -0.000060 0.000119 71.686523 -39.200203 -108.398766 139.999985
35 139.999985 -0.000060 0.000119 44.703705 -34.195110 -45.753677 139.999985
[Rope2_Seg06]
34 139.999893 -0.000030 -0.000119 -4.513941 -12.267522 -5.583981 139.999893
35 139.999893 -0.000030 -0.000119 1.702968 -16.783438 -3.394799 139.999893
[Rope2_Seg07]
34 139.999893 0.000060 -0.000060 -1.074096 -1.887874 -1.059011 139.999893
35 139.999893 0.000060 -0.000060 -0.145477 -6.368402 -1.094859 139.999893
[Rope2_Seg09]
34 121.338966 0.000089 -0.000060 33.793236 -1.359788 -0.847141 121.338966
35 121.338966 0.000089 -0.000060 33.793236 -1.359788 -0.847141 121.338966
[R_mid_hand01]
34 104.680779 11.144459 -10.335981 -44.145947 19.560663 21.759447 105.778534
35 104.680779 11.144459 -10.335981 -44.145947 19.560663 21.759447 105.778534
[R_mid_hand02]
34 104.070427 2.443552 8.231699 74.186180 -24.483591 7.232481 104.424065
35 104.070427 2.443552 8.231699 74.186180 -24.483591 7.232481 104.424065
[R_mid_hand03]
34 106.028137 -11.221827 -5.996406 -166.520828 8.347036 -28.494411 106.788818
35 106.028137 -11.221827 -5.996406 -166.520828 8.347037 -28.494413 106.788818
[spine02]
34 129.756927 0.001550 0.000119 0.305502 -4.050099 -12.206185 129.756927
35 129.756927 0.001550 0.000119 0.314481 -4.049260 -12.320975 129.756927
[spine03]
34 78.614159 0.081284 -4.899013 1.992507 3.784066 17.956959 78.766701
35 78.614128 0.081333 -4.899012 1.968815 3.794628 17.598305 78.766670
[pelvis]
34 169.435242 0.051022 0.000000 -0.060583 -0.180186 14.162680 169.435257
35 169.435242 0.051022 0.000000 -0.060546 -0.180198 14.139424 169.435257
[null_rope03_connect]
34 -1.257226 -2.466202 137.391083 -39.680172 -77.279411 100.779640 137.418976
35 -1.257226 -2.466202 137.391083 -31.216551 -81.471703 92.163734 137.418976
[null_rope04_connect]
34 -1.259640 -2.480268 -137.844437 -39.680172 -77.279411 100.779640 137.872513
35 -1.259640 -2.480268 -137.844437 -31.216551 -81.471703 92.163734 137.872513
[Rope3_Seg01]
34 0.000000 0.000000 0.000000 -131.683716 5.922802 -102.685028 0.000000
35 0.000000 0.000000 0.000000 -134.987259 13.660863 -99.490372 0.000000
[Rope3_Seg02]
34 139.999924 -0.000119 0.000060 -1.174807 -0.892409 3.038170 139.999924
35 139.999924 -0.000119 0.000060 -0.641703 -1.653183 0.367053 139.999924
[Rope3_Seg03]
34 139.999924 -0.000119 0.000119 -1.750546 -1.397100 3.679186 139.999924
35 139.999924 -0.000119 0.000119 -0.781386 -2.322534 0.071914 139.999924
[Rope3_Seg04]
34 139.999924 0.000119 0.000000 -3.237751 -3.060915 4.657721 139.999924
35 139.999924 0.000119 0.000000 -0.888723 -5.096711 -2.691847 139.999924
[Rope3_Seg05]
34 139.999924 -0.000238 0.000060 -4.379391 0.333609 10.988342 139.999924
35 139.999924 -0.000238 0.000060 -1.235284 2.018796 9.796345 139.999924
[Rope3_Seg06]
34 139.999893 -0.000119 -0.000060 -1.915414 0.320425 4.850168 139.999893
35 139.999893 -0.000119 -0.000060 -0.534007 2.482656 7.063706 139.999893
[Rope3_Seg07]
34 139.999771 0.000060 -0.000119 -1.159632 -0.165415 2.555655 139.999771
35 139.999771 0.000060 -0.000119 -0.295408 0.722115 3.106143 139.999771
[Rope3_Seg08]
34 139.999985 -0.000060 0.000000 -0.519308 -0.125148 1.485993 139.999985
35 139.999985 -0.000060 0.000000 0.003364 0.417099 1.826720 139.999985
[Rope3_Seg09]
34 90.185997 -0.000179 -0.000060 16.284208 -1.361837 -0.846339 90.185997
35 90.185997 -0.000179 -0.000060 13.805117 -1.361125 -0.847647 90.185997
[R_rear_hand01]
34 103.366196 -6.073594 -10.757982 -160.019470 14.769054 -24.439312 104.101845
35 103.366196 -6.073594 -10.757982 -160.019470 14.769054 -24.439312 104.101845
[R_rear_hand02]
34 100.509819 12.039542 -7.992327 -35.779446 15.980558 23.927948 101.543350
35 100.509819 12.039542 -7.992327 -35.779446 15.980558 23.927948 101.543350
[R_rear_hand03]
34 101.539970 5.215704 5.435467 83.711815 -25.208061 6.550417 101.819031
35 101.539970 5.215704 5.435467 83.711815 -25.208061 6.550417 101.819031
[Rope4_Seg01]
34 0.000000 0.000000 0.000000 43.528145 29.130869 -112.980179 0.000000
35 0.000000 0.000000 0.000000 42.992725 26.289562 -114.324364 0.000000
[Rope4_Seg02]
34 139.999985 0.000060 0.000119 -0.046205 -4.094735 -6.973918 139.999985
35 139.999985 0.000060 0.000119 -0.118222 -1.372755 -3.622981 139.999985
[Rope4_Seg03]
34 139.999924 0.000000 -0.000238 -0.554656 -4.329594 -7.049427 139.999924
35 139.999924 0.000000 -0.000238 -0.261058 -1.461992 -3.843800 139.999924
[Rope4_Seg04]
34 139.999985 0.000000 0.000119 0.357612 -6.067961 -2.602795 139.999985
35 139.999985 0.000000 0.000119 0.196462 -2.213552 -0.353349 139.999985
[Rope4_Seg05]
34 139.999802 -0.000060 -0.000119 -2.975630 -2.405679 -8.976125 139.999802
35 139.999802 -0.000060 -0.000119 -1.023494 -1.282240 -6.207304 139.999802
[Rope4_Seg06]
34 139.999924 0.000000 0.000060 -11.851331 3.418785 -19.852531 139.999924
35 139.999924 0.000000 0.000060 -4.886552 0.955332 -15.851151 139.999924
[Rope4_Seg07]
34 139.999802 0.000000 0.000000 -11.055373 5.996164 -15.588427 139.999802
35 139.999802 0.000000 0.000000 -4.917531 1.738772 -12.016165 139.999802
[Rope4_Seg08]
34 139.999924 0.000000 0.000119 -6.860422 4.045201 -7.429240 139.999924
35 139.999924 0.000000 0.000119 -4.491444 1.312234 -6.393746 139.999924
[Rope4_Seg09]
34 90.185791 0.000060 0.000060 163.619843 2.229455 0.850218 90.185791
35 90.185791 0.000060 0.000060 162.714676 2.228551 0.848735 90.185791
[L_rear_hand01]
34 101.696655 -8.392275 -7.654577 -36.144974 -15.023622 157.444031 102.329041
35 101.696655 -8.392275 -7.654577 -36.144974 -15.023622 157.444031 102.329041
[L_rear_hand02]
34 102.726799 -1.568258 5.773216 83.794235 23.585917 173.644012 102.900848
35 102.726799 -1.568258 5.773216 83.794235 23.585917 173.644012 102.900848
[L_rear_hand03]
34 104.552910 9.721220 -10.420293 -159.624359 -14.202497 -157.147644 105.519653
35 104.552910 9.721220 -10.420293 -159.624359 -14.202497 -157.147644 105.519653
